<?xml version="1.0" encoding="UTF-8"?>
<svg width="466px" height="466px" viewBox="0 0 466 466" version="1.1" xmlns="http://www.w3.org/2000/svg" xmlns:xlink="http://www.w3.org/1999/xlink">
    <!-- Generator: Sketch 49.2 (51160) - http://www.bohemiancoding.com/sketch -->
    <title>Group</title>
    <desc>Created with Sketch.</desc>
    <defs></defs>
    <g id="Page-1" stroke="none" stroke-width="1" fill="none" fill-rule="evenodd">
        <g id="Group">
            <circle id="Oval-3" fill="#474F6F" cx="233" cy="233" r="233"></circle>
            <g id="Group-3" transform="translate(86.000000, 84.000000)" fill="#FFFFFF">
                <path d="M293.003744,212 C291.940538,259.67735 252.958648,298 205.026023,298 L88.9739769,298 C41.0413525,298 2.05946244,259.67735 0.996256274,212 L293.003744,212 Z" id="Combined-Shape"></path>
                <path d="M100.227983,85.9543121 C99.4586507,85.9846601 98.6847744,86 97.9067398,86 C70.3440085,86 48,66.7482442 48,43 C48,19.2517558 70.3440085,0 97.9067398,0 C98.6847744,0 99.4586507,0.0153399406 100.227983,0.045687945 L100.227983,-5.5067062e-14 L206.025975,-2.84217094e-14 C253.9586,-2.84217094e-14 292.94049,38.3226498 294.003696,86 L100.227983,86 L100.227983,85.9543121 Z" id="Combined-Shape"></path>
                <path d="M204.974184,106 L293,106 L293,192 L292.951905,192 L0.996256673,192 C2.05946284,144.32265 41.0413529,106 88.9739773,106 L204.974184,106 Z" id="Combined-Shape"></path>
            </g>
        </g>
    </g>
</svg>